<svg width="176" height="25" viewBox="0 0 176 25" fill="none" xmlns="http://www.w3.org/2000/svg">
<mask id="path-1-inside-1_903_154" fill="white">
<path d="M162 16.1523H155V11.1704H162M160.5 8V8.90582H156.5V8H155.5V8.90582H155C154.445 8.90582 154 9.3089 154 9.81163V16.1523C154 16.3926 154.105 16.623 154.293 16.7929C154.48 16.9627 154.735 17.0582 155 17.0582H162C162.265 17.0582 162.52 16.9627 162.707 16.7929C162.895 16.623 163 16.3926 163 16.1523V9.81163C163 9.57139 162.895 9.341 162.707 9.17112C162.52 9.00125 162.265 8.90582 162 8.90582H161.5V8M161 12.982H158.5V15.2465H161V12.982Z"/>
</mask>
<path d="M162 16.1523H155V11.1704H162M160.5 8V8.90582H156.5V8H155.5V8.90582H155C154.445 8.90582 154 9.3089 154 9.81163V16.1523C154 16.3926 154.105 16.623 154.293 16.7929C154.48 16.9627 154.735 17.0582 155 17.0582H162C162.265 17.0582 162.52 16.9627 162.707 16.7929C162.895 16.623 163 16.3926 163 16.1523V9.81163C163 9.57139 162.895 9.341 162.707 9.17112C162.52 9.00125 162.265 8.90582 162 8.90582H161.5V8M161 12.982H158.5V15.2465H161V12.982Z" fill="white"/>
<path d="M155 16.1523H153.634V17.5182H155V16.1523ZM155 11.1704V9.80454H153.634V11.1704H155ZM160.5 8.90582V10.2716H161.866V8.90582H160.5ZM156.5 8.90582H155.134V10.2716H156.5V8.90582ZM156.5 8H157.866V6.63418H156.5V8ZM155.5 8V6.63418H154.134V8H155.5ZM155.5 8.90582V10.2716H156.866V8.90582H155.5ZM154 16.1523H152.634H154ZM162 8.90582V7.54V8.90582ZM161.5 8.90582H160.134V10.2716H161.5V8.90582ZM161 12.982H162.366V11.6162H161V12.982ZM158.5 12.982V11.6162H157.134V12.982H158.5ZM158.5 15.2465H157.134V16.6123H158.5V15.2465ZM161 15.2465V16.6123H162.366V15.2465H161ZM162 14.7865H155V17.5182H162V14.7865ZM156.366 16.1523V11.1704H153.634V16.1523H156.366ZM155 12.5362H162V9.80454H155V12.5362ZM159.134 8V8.90582H161.866V8H159.134ZM160.5 7.54H156.5V10.2716H160.5V7.54ZM157.866 8.90582V8H155.134V8.90582H157.866ZM156.5 6.63418H155.5V9.36582H156.5V6.63418ZM154.134 8V8.90582H156.866V8H154.134ZM155.5 7.54H155V10.2716H155.5V7.54ZM155 7.54C153.821 7.54 152.634 8.4306 152.634 9.81163H155.366C155.366 9.98001 155.288 10.111 155.209 10.1825C155.133 10.2515 155.054 10.2716 155 10.2716V7.54ZM152.634 9.81163V16.1523H155.366V9.81163H152.634ZM152.634 16.1523C152.634 16.8009 152.92 17.3919 153.376 17.8051L155.21 15.7806C155.291 15.854 155.366 15.9843 155.366 16.1523H152.634ZM153.376 17.8051C153.828 18.2143 154.414 18.424 155 18.424V15.6923C155.056 15.6923 155.133 15.7112 155.21 15.7806L153.376 17.8051ZM155 18.424H162V15.6923H155V18.424ZM162 18.424C162.586 18.424 163.172 18.2143 163.624 17.8051L161.79 15.7806C161.867 15.7112 161.944 15.6923 162 15.6923V18.424ZM163.624 17.8051C164.08 17.3919 164.366 16.8009 164.366 16.1523H161.634C161.634 15.9843 161.709 15.854 161.79 15.7806L163.624 17.8051ZM164.366 16.1523V9.81163H161.634V16.1523H164.366ZM164.366 9.81163C164.366 9.16311 164.08 8.57205 163.624 8.15885L161.79 10.1834C161.709 10.1099 161.634 9.97968 161.634 9.81163H164.366ZM163.624 8.15885C163.172 7.74971 162.586 7.54 162 7.54V10.2716C161.944 10.2716 161.867 10.2528 161.79 10.1834L163.624 8.15885ZM162 7.54H161.5V10.2716H162V7.54ZM162.866 8.90582V8H160.134V8.90582H162.866ZM161 11.6162H158.5V14.3478H161V11.6162ZM157.134 12.982V15.2465H159.866V12.982H157.134ZM158.5 16.6123H161V13.8807H158.5V16.6123ZM162.366 15.2465V12.982H159.634V15.2465H162.366Z" fill="#7ADCDB" mask="url(#path-1-inside-1_903_154)"/>
<rect x="0.5" y="0.5" width="175" height="24" rx="9.5" stroke="#7ADCDB"/>
</svg>
