<svg width="19" height="19" viewBox="0 0 19 19" fill="none" xmlns="http://www.w3.org/2000/svg">
<path id="Vector" d="M5.79859 7.55741H13.2051M5.79859 11.4426H11.0805M9.50183 18C11.3483 17.9996 13.1444 17.398 14.6186 16.286C16.0927 15.1741 17.1647 13.6125 17.6724 11.8372C18.1801 10.0619 18.0959 8.16953 17.4325 6.44634C16.7692 4.72315 15.5628 3.26283 13.9957 2.28622C12.4286 1.30962 10.5862 0.869852 8.74699 1.03343C6.90779 1.19701 5.17187 1.95503 3.80176 3.19287C2.43166 4.4307 1.50189 6.08102 1.15306 7.89423C0.80424 9.70744 1.05534 11.5849 1.86838 13.2428C1.96762 13.4449 2.0007 13.6728 1.95016 13.8915L1.20032 17.1408C1.17919 17.232 1.18161 17.3271 1.20737 17.4171C1.23313 17.507 1.28138 17.589 1.34757 17.6552C1.41376 17.7214 1.49571 17.7696 1.5857 17.7954C1.67569 17.8211 1.77076 17.8236 1.86195 17.8024L5.11032 17.0517C5.32964 17.0037 5.55882 17.0329 5.75908 17.1344C6.92371 17.7063 8.20435 18.0025 9.50183 18Z" stroke="#7ADCDB" stroke-width="1.37838" stroke-linecap="round" stroke-linejoin="round"/>
</svg>
