<svg width="340" height="60" viewBox="0 0 340 60" fill="none" xmlns="http://www.w3.org/2000/svg">
<rect width="340" height="60" rx="30" fill="url(#paint0_linear_782_150)"/>
<path d="M109.847 34.9434H107.614V32.333H109.847V34.9434ZM116.913 38.6172H114.689V22.6035H116.913V38.6172ZM104.477 34.0996C106.381 34.0879 108.071 34.0527 109.548 33.9941C111.03 33.9297 112.451 33.8096 113.811 33.6338L113.951 35.2949C112.416 35.5645 110.831 35.7402 109.196 35.8223C107.567 35.8984 105.783 35.9365 103.844 35.9365L103.545 34.0996H104.477ZM113.582 26.1631H103.861V24.4053H113.582V26.1631ZM108.713 26.7959C109.498 26.7959 110.195 26.9219 110.805 27.1738C111.414 27.4258 111.889 27.7803 112.229 28.2373C112.568 28.6885 112.738 29.21 112.738 29.8018C112.738 30.3877 112.568 30.9062 112.229 31.3574C111.889 31.8086 111.414 32.1631 110.805 32.4209C110.195 32.6729 109.498 32.7988 108.713 32.7988C107.945 32.7988 107.257 32.6729 106.647 32.4209C106.044 32.1689 105.572 31.8174 105.232 31.3662C104.898 30.9092 104.731 30.3877 104.731 29.8018C104.731 29.21 104.898 28.6885 105.232 28.2373C105.572 27.7803 106.044 27.4258 106.647 27.1738C107.257 26.9219 107.945 26.7959 108.713 26.7959ZM108.713 28.4922C108.355 28.4922 108.036 28.5449 107.755 28.6504C107.474 28.75 107.254 28.8994 107.096 29.0986C106.938 29.292 106.858 29.5264 106.858 29.8018C106.858 30.0713 106.938 30.3027 107.096 30.4961C107.254 30.6895 107.474 30.8389 107.755 30.9443C108.036 31.0439 108.355 31.0938 108.713 31.0938C109.088 31.0938 109.419 31.0439 109.706 30.9443C109.993 30.8447 110.213 30.6982 110.365 30.5049C110.518 30.3057 110.594 30.0713 110.594 29.8018C110.594 29.5264 110.518 29.292 110.365 29.0986C110.213 28.8994 109.993 28.75 109.706 28.6504C109.419 28.5449 109.088 28.4922 108.713 28.4922ZM109.864 25.4072H107.614V22.6826H109.864V25.4072ZM125.509 34.3369H123.25V30.8037H125.509V34.3369ZM132.584 34.7236H130.334V22.6387H132.584V34.7236ZM132.936 38.3447H121V36.5342H132.936V38.3447ZM123.259 37.0176H121V33.5635H123.259V37.0176ZM118.97 29.7314C121.161 29.7021 123.051 29.6611 124.639 29.6084C126.232 29.5498 127.771 29.4268 129.253 29.2393L129.367 30.8477C127.814 31.1113 126.188 31.2871 124.489 31.375C122.796 31.4629 121.044 31.5039 119.233 31.498L118.97 29.7314ZM130.844 33.4492H127.275V31.9199H130.844V33.4492ZM124.173 23.1748C124.94 23.1689 125.626 23.2891 126.229 23.5352C126.839 23.7754 127.313 24.1152 127.653 24.5547C127.999 24.9883 128.172 25.4834 128.172 26.04C128.172 26.6084 127.999 27.1035 127.653 27.5254C127.313 27.9473 126.842 28.2783 126.238 28.5186C125.635 28.7529 124.946 28.8701 124.173 28.8701C123.394 28.8701 122.699 28.7529 122.09 28.5186C121.48 28.2783 121.006 27.9473 120.666 27.5254C120.326 27.1035 120.156 26.6084 120.156 26.04C120.156 25.4834 120.326 24.9854 120.666 24.5459C121.006 24.1064 121.48 23.7666 122.09 23.5264C122.699 23.2861 123.394 23.1689 124.173 23.1748ZM124.173 24.8184C123.798 24.8125 123.467 24.8594 123.18 24.959C122.893 25.0527 122.67 25.1934 122.512 25.3809C122.359 25.5684 122.283 25.7881 122.283 26.04C122.283 26.292 122.359 26.5117 122.512 26.6992C122.67 26.8809 122.893 27.0186 123.18 27.1123C123.467 27.2061 123.798 27.2529 124.173 27.2529C124.542 27.2529 124.864 27.2061 125.14 27.1123C125.421 27.0186 125.641 26.8809 125.799 26.6992C125.957 26.5117 126.036 26.292 126.036 26.04C126.036 25.7881 125.957 25.5684 125.799 25.3809C125.641 25.1934 125.421 25.0527 125.14 24.959C124.864 24.8594 124.542 24.8125 124.173 24.8184ZM146.418 28.334H143.342V26.5146H146.418V28.334ZM148.07 32.1221H145.838V22.6035H148.07V32.1221ZM142.604 32.4736C143.746 32.4736 144.73 32.5967 145.557 32.8428C146.383 33.083 147.016 33.4346 147.455 33.8975C147.9 34.3604 148.123 34.9141 148.123 35.5586C148.123 36.1973 147.9 36.7451 147.455 37.2021C147.016 37.665 146.383 38.0195 145.557 38.2656C144.73 38.5117 143.746 38.6377 142.604 38.6436C141.473 38.6377 140.494 38.5117 139.668 38.2656C138.848 38.0195 138.215 37.665 137.77 37.2021C137.33 36.7451 137.11 36.1973 137.11 35.5586C137.11 34.9141 137.33 34.3604 137.77 33.8975C138.215 33.4346 138.848 33.083 139.668 32.8428C140.494 32.5967 141.473 32.4736 142.604 32.4736ZM142.604 34.1787C141.9 34.1787 141.306 34.2285 140.819 34.3281C140.333 34.4277 139.964 34.5801 139.712 34.7852C139.46 34.9902 139.334 35.248 139.334 35.5586C139.334 35.8516 139.46 36.1035 139.712 36.3145C139.964 36.5195 140.333 36.6748 140.819 36.7803C141.306 36.8799 141.9 36.9297 142.604 36.9297C143.324 36.9297 143.928 36.8799 144.414 36.7803C144.9 36.6748 145.267 36.5195 145.513 36.3145C145.759 36.1035 145.882 35.8516 145.882 35.5586C145.882 35.248 145.759 34.9902 145.513 34.7852C145.267 34.5801 144.9 34.4277 144.414 34.3281C143.928 34.2285 143.324 34.1787 142.604 34.1787ZM140.169 25.2754C140.169 26.3125 140.002 27.2852 139.668 28.1934C139.334 29.1016 138.827 29.9014 138.147 30.5928C137.474 31.2783 136.645 31.791 135.66 32.1309L134.491 30.3467C135.347 30.0596 136.062 29.6523 136.636 29.125C137.216 28.5918 137.644 27.9941 137.919 27.332C138.2 26.6641 138.341 25.9785 138.341 25.2754V24.2207H140.169V25.2754ZM140.626 25.2578C140.626 25.9082 140.758 26.5381 141.021 27.1475C141.291 27.7568 141.701 28.3076 142.252 28.7998C142.803 29.292 143.488 29.6758 144.309 29.9512L143.201 31.709C142.234 31.3926 141.42 30.9121 140.758 30.2676C140.102 29.6172 139.612 28.8613 139.29 28C138.968 27.1387 138.807 26.2246 138.807 25.2578V24.2207H140.626V25.2578ZM143.816 25.3896H135.133V23.5791H143.816V25.3896ZM164.778 36.7539H150.153V34.9434H164.778V36.7539ZM158.538 35.3916H156.332V31.4717H158.538V35.3916ZM153.95 26.1279H160.92V23.6318H163.152V31.9727H151.7V23.6318H153.95V26.1279ZM160.92 30.1797V27.9033H153.95V30.1797H160.92ZM177.962 23.8691C177.962 24.8887 177.695 25.8379 177.162 26.7168C176.629 27.5898 175.858 28.3223 174.851 28.9141C173.849 29.5059 172.671 29.9014 171.317 30.1006L170.438 28.2988C171.599 28.1582 172.601 27.8594 173.444 27.4023C174.288 26.9395 174.924 26.4004 175.352 25.7852C175.779 25.1641 175.993 24.5254 175.993 23.8691V23.0869H177.962V23.8691ZM178.349 23.8691C178.349 24.5254 178.565 25.1641 178.999 25.7852C179.438 26.4062 180.08 26.9453 180.924 27.4023C181.773 27.8594 182.778 28.1582 183.938 28.2988L183.068 30.1006C181.709 29.9014 180.525 29.5059 179.518 28.9141C178.51 28.3223 177.736 27.5898 177.197 26.7168C176.658 25.8438 176.389 24.8945 176.389 23.8691V23.0869H178.349V23.8691ZM178.234 38.6172H176.011V32.7373H178.234V38.6172ZM184.466 33.1504H169.876V31.3135H184.466V33.1504ZM197.254 28.334H194.178V26.5146H197.254V28.334ZM198.906 32.1221H196.674V22.6035H198.906V32.1221ZM193.439 32.4736C194.582 32.4736 195.566 32.5967 196.393 32.8428C197.219 33.083 197.852 33.4346 198.291 33.8975C198.736 34.3604 198.959 34.9141 198.959 35.5586C198.959 36.1973 198.736 36.7451 198.291 37.2021C197.852 37.665 197.219 38.0195 196.393 38.2656C195.566 38.5117 194.582 38.6377 193.439 38.6436C192.309 38.6377 191.33 38.5117 190.504 38.2656C189.684 38.0195 189.051 37.665 188.605 37.2021C188.166 36.7451 187.946 36.1973 187.946 35.5586C187.946 34.9141 188.166 34.3604 188.605 33.8975C189.051 33.4346 189.684 33.083 190.504 32.8428C191.33 32.5967 192.309 32.4736 193.439 32.4736ZM193.439 34.1787C192.736 34.1787 192.142 34.2285 191.655 34.3281C191.169 34.4277 190.8 34.5801 190.548 34.7852C190.296 34.9902 190.17 35.248 190.17 35.5586C190.17 35.8516 190.296 36.1035 190.548 36.3145C190.8 36.5195 191.169 36.6748 191.655 36.7803C192.142 36.8799 192.736 36.9297 193.439 36.9297C194.16 36.9297 194.764 36.8799 195.25 36.7803C195.736 36.6748 196.103 36.5195 196.349 36.3145C196.595 36.1035 196.718 35.8516 196.718 35.5586C196.718 35.248 196.595 34.9902 196.349 34.7852C196.103 34.5801 195.736 34.4277 195.25 34.3281C194.764 34.2285 194.16 34.1787 193.439 34.1787ZM191.005 25.2754C191.005 26.3125 190.838 27.2852 190.504 28.1934C190.17 29.1016 189.663 29.9014 188.983 30.5928C188.31 31.2783 187.48 31.791 186.496 32.1309L185.327 30.3467C186.183 30.0596 186.897 29.6523 187.472 29.125C188.052 28.5918 188.479 27.9941 188.755 27.332C189.036 26.6641 189.177 25.9785 189.177 25.2754V24.2207H191.005V25.2754ZM191.462 25.2578C191.462 25.9082 191.594 26.5381 191.857 27.1475C192.127 27.7568 192.537 28.3076 193.088 28.7998C193.639 29.292 194.324 29.6758 195.145 29.9512L194.037 31.709C193.07 31.3926 192.256 30.9121 191.594 30.2676C190.938 29.6172 190.448 28.8613 190.126 28C189.804 27.1387 189.643 26.2246 189.643 25.2578V24.2207H191.462V25.2578ZM194.652 25.3896H185.969V23.5791H194.652V25.3896ZM211.114 31.542H208.864V29.0986H211.114V31.542ZM209.963 23.2803C210.736 23.2803 211.428 23.415 212.037 23.6846C212.646 23.9541 213.124 24.335 213.47 24.8271C213.821 25.3193 213.997 25.8877 213.997 26.5322C213.997 27.1475 213.821 27.7012 213.47 28.1934C213.124 28.6855 212.646 29.0723 212.037 29.3535C211.428 29.6289 210.736 29.7666 209.963 29.7666C209.189 29.7666 208.495 29.6289 207.88 29.3535C207.265 29.0723 206.787 28.6855 206.447 28.1934C206.113 27.7012 205.946 27.1475 205.946 26.5322C205.946 25.8936 206.113 25.3281 206.447 24.8359C206.787 24.3379 207.265 23.9541 207.88 23.6846C208.495 23.415 209.189 23.2803 209.963 23.2803ZM209.963 24.9678C209.582 24.9678 209.245 25.0293 208.952 25.1523C208.659 25.2754 208.431 25.4541 208.267 25.6885C208.108 25.9229 208.029 26.2041 208.029 26.5322C208.029 26.8428 208.108 27.1123 208.267 27.3408C208.431 27.5693 208.659 27.748 208.952 27.877C209.251 28 209.588 28.0615 209.963 28.0615C210.344 28.0615 210.678 28 210.965 27.877C211.258 27.748 211.483 27.5693 211.642 27.3408C211.806 27.1123 211.888 26.8428 211.888 26.5322C211.888 26.1982 211.809 25.9141 211.65 25.6797C211.492 25.4453 211.267 25.2695 210.974 25.1523C210.681 25.0293 210.344 24.9678 209.963 24.9678ZM217.943 34.8379H215.685V22.6387H217.943V34.8379ZM219.991 29.5293H217.144V27.666H219.991V29.5293ZM218.488 38.3184H207.212V36.5166H218.488V38.3184ZM209.479 37.3164H207.212V33.7744H209.479V37.3164ZM205.094 30.9707C206.852 30.9766 208.551 30.9443 210.191 30.874C211.838 30.8037 213.373 30.666 214.797 30.4609L214.964 32.0869C213.505 32.3506 211.976 32.5264 210.376 32.6143C208.782 32.7021 207.104 32.7461 205.34 32.7461L205.094 30.9707ZM226.636 35.7344H224.447V31.9375H226.636V35.7344ZM231.76 35.7256H229.562V31.9199H231.76V35.7256ZM235.337 36.8418H220.712V35.0049H235.337V36.8418ZM233.649 28.958H224.632V31.6914H222.399V27.1738H231.435V25.46H222.373V23.6582H233.649V28.958ZM234.027 32.5527H222.399V30.7334H234.027V32.5527Z" fill="white"/>
<defs>
<linearGradient id="paint0_linear_782_150" x1="7.15431e-06" y1="0.390525" x2="153.999" y2="201.816" gradientUnits="userSpaceOnUse">
<stop stop-color="#D1FFD8"/>
<stop offset="1" stop-color="#7ADCDB"/>
</linearGradient>
</defs>
</svg>
