<svg width="34" height="54" viewBox="0 0 34 54" fill="none" xmlns="http://www.w3.org/2000/svg">
<path d="M8.184 40.956H9.792V47.46H8.184V40.956ZM5.844 43.56H8.52V44.844H5.844V43.56ZM0.936 41.748H6.192V46.836H0.936V41.748ZM4.632 43.008H2.508V45.576H4.632V43.008ZM6.024 47.748C7.2 47.748 8.128 47.94 8.808 48.324C9.488 48.7 9.828 49.228 9.828 49.908C9.828 50.588 9.488 51.116 8.808 51.492C8.128 51.876 7.2 52.068 6.024 52.068C4.848 52.068 3.92 51.876 3.24 51.492C2.56 51.116 2.22 50.588 2.22 49.908C2.22 49.228 2.56 48.7 3.24 48.324C3.92 47.94 4.848 47.748 6.024 47.748ZM6.024 48.972C5.544 48.972 5.14 49.008 4.812 49.08C4.484 49.144 4.232 49.244 4.056 49.38C3.888 49.516 3.804 49.692 3.804 49.908C3.804 50.116 3.888 50.292 4.056 50.436C4.232 50.572 4.484 50.676 4.812 50.748C5.14 50.812 5.544 50.844 6.024 50.844C6.504 50.844 6.908 50.812 7.236 50.748C7.564 50.676 7.812 50.572 7.98 50.436C8.148 50.292 8.232 50.116 8.232 49.908C8.232 49.692 8.148 49.516 7.98 49.38C7.812 49.244 7.564 49.144 7.236 49.08C6.908 49.008 6.504 48.972 6.024 48.972ZM11.5311 49.548H21.5991V50.844H11.5311V49.548ZM15.7551 47.436H17.3391V50.064H15.7551V47.436ZM12.6711 41.664H20.4591V45.372H14.2671V47.232H12.6831V44.124H18.8751V42.936H12.6711V41.664ZM12.6831 46.608H20.7111V47.88H12.6831V46.608ZM30.1781 40.944H31.7741V47.46H30.1781V40.944ZM26.7221 41.676H28.4021C28.4021 42.42 28.2861 43.108 28.0541 43.74C27.8221 44.372 27.4821 44.94 27.0341 45.444C26.5941 45.94 26.0501 46.376 25.4021 46.752C24.7621 47.12 24.0341 47.416 23.2181 47.64L22.6061 46.404C23.2781 46.22 23.8701 45.996 24.3821 45.732C24.8941 45.46 25.3221 45.152 25.6661 44.808C26.0181 44.464 26.2821 44.096 26.4581 43.704C26.6341 43.304 26.7221 42.884 26.7221 42.444V41.676ZM23.2541 41.676H27.7781V42.948H23.2541V41.676ZM28.0301 47.58C28.8061 47.58 29.4781 47.672 30.0461 47.856C30.6141 48.032 31.0541 48.288 31.3661 48.624C31.6781 48.952 31.8341 49.352 31.8341 49.824C31.8341 50.288 31.6781 50.688 31.3661 51.024C31.0541 51.36 30.6141 51.616 30.0461 51.792C29.4781 51.976 28.8061 52.068 28.0301 52.068C27.2541 52.068 26.5821 51.976 26.0141 51.792C25.4461 51.616 25.0061 51.36 24.6941 51.024C24.3821 50.688 24.2261 50.288 24.2261 49.824C24.2261 49.352 24.3821 48.952 24.6941 48.624C25.0061 48.288 25.4461 48.032 26.0141 47.856C26.5821 47.672 27.2541 47.58 28.0301 47.58ZM28.0301 48.84C27.5501 48.84 27.1461 48.876 26.8181 48.948C26.4901 49.02 26.2421 49.128 26.0741 49.272C25.9061 49.416 25.8221 49.6 25.8221 49.824C25.8221 50.048 25.9061 50.232 26.0741 50.376C26.2421 50.52 26.4901 50.628 26.8181 50.7C27.1461 50.772 27.5501 50.808 28.0301 50.808C28.5101 50.808 28.9141 50.772 29.2421 50.7C29.5701 50.628 29.8181 50.52 29.9861 50.376C30.1541 50.232 30.2381 50.048 30.2381 49.824C30.2381 49.6 30.1541 49.416 29.9861 49.272C29.8181 49.128 29.5701 49.02 29.2421 48.948C28.9141 48.876 28.5101 48.84 28.0301 48.84Z" fill="#E3E3E3"/>
<path d="M5 19.9513C6.60875 18.3744 8.77165 17.4912 11.0243 17.4912C13.277 17.4912 15.4399 18.3744 17.0487 19.9513C18.6574 21.5282 20.8203 22.4115 23.073 22.4115C25.3257 22.4115 27.4886 21.5282 29.0974 19.9513V4.46015C27.4886 6.03703 25.3257 6.92029 23.073 6.92029C20.8203 6.92029 18.6574 6.03703 17.0487 4.46015C15.4399 2.88326 13.277 2 11.0243 2C8.77165 2 6.60875 2.88326 5 4.46015V19.9513ZM5 19.9513V32" stroke="#E3E3E3" stroke-width="3.44248" stroke-linecap="round" stroke-linejoin="round"/>
</svg>
