<svg width="35" height="55" viewBox="0 0 35 55" fill="none" xmlns="http://www.w3.org/2000/svg">
<path d="M33.4921 31.0317V14.3016C33.4921 13.996 33.4209 13.6947 33.2843 13.4214C33.1476 13.1481 32.9492 12.9103 32.7048 12.727L18.927 2.39365C18.5863 2.13813 18.1719 2 17.746 2C17.3202 2 16.9058 2.13813 16.5651 2.39365L2.7873 12.727C2.54285 12.9103 2.34445 13.1481 2.20779 13.4214C2.07114 13.6947 2 13.996 2 14.3016V31.0317C2 31.5538 2.20737 32.0544 2.57649 32.4235C2.94561 32.7926 3.44624 33 3.96825 33H11.8413C12.3633 33 12.8639 32.7926 13.233 32.4235C13.6022 32.0544 13.8095 31.5538 13.8095 31.0317V25.127C13.8095 24.605 14.0169 24.1043 14.386 23.7352C14.7551 23.3661 15.2558 23.1587 15.7778 23.1587H19.7143C20.2363 23.1587 20.7369 23.3661 21.1061 23.7352C21.4752 24.1043 21.6825 24.605 21.6825 25.127V31.0317C21.6825 31.5538 21.8899 32.0544 22.259 32.4235C22.6281 32.7926 23.1288 33 23.6508 33H31.5238C32.0458 33 32.5465 32.7926 32.9156 32.4235C33.2847 32.0544 33.4921 31.5538 33.4921 31.0317Z" stroke="#E3E3E3" stroke-width="2.95238" stroke-linecap="round" stroke-linejoin="round"/>
<path d="M13.656 49.696H21.336V52.948H13.656V49.696ZM19.776 50.872H15.216V51.76H19.776V50.872ZM12.96 42.724H22.02V43.936H12.96V42.724ZM17.508 44.2C18.708 44.2 19.628 44.336 20.268 44.608C20.908 44.872 21.228 45.264 21.228 45.784C21.228 46.312 20.908 46.712 20.268 46.984C19.628 47.248 18.708 47.38 17.508 47.38C16.324 47.38 15.408 47.248 14.76 46.984C14.112 46.712 13.788 46.312 13.788 45.784C13.788 45.264 14.112 44.872 14.76 44.608C15.408 44.336 16.324 44.2 17.508 44.2ZM17.508 45.28C16.828 45.28 16.324 45.32 15.996 45.4C15.668 45.48 15.504 45.608 15.504 45.784C15.504 45.968 15.668 46.1 15.996 46.18C16.324 46.26 16.828 46.3 17.508 46.3C18.204 46.3 18.712 46.26 19.032 46.18C19.36 46.1 19.524 45.968 19.524 45.784C19.524 45.608 19.36 45.48 19.032 45.4C18.712 45.32 18.204 45.28 17.508 45.28ZM16.716 41.872H18.3V43.588H16.716V41.872ZM12.48 47.896H22.536V49.132H12.48V47.896ZM16.716 46.996H18.3V48.544H16.716V46.996Z" fill="#E3E3E3"/>
</svg>
