<svg width="359" height="33" viewBox="0 0 359 33" fill="none" xmlns="http://www.w3.org/2000/svg">
<rect width="359" height="33" rx="10" fill="#7ADCDB"/>
<path d="M25.1826 19.3411C25.7215 18.3244 26.0022 17.1896 26 16.0376C26 12.1508 22.8661 9 19 9C15.1339 9 12 12.1508 12 16.0376C11.9971 17.6978 12.5808 19.305 13.6471 20.5727L13.6553 20.5831L13.6627 20.5913H13.6471L17.8009 25.025C17.9549 25.1894 18.1407 25.3203 18.3469 25.4098C18.553 25.4993 18.7752 25.5455 18.9998 25.5455C19.2244 25.5455 19.4465 25.4993 19.6527 25.4098C19.8589 25.3203 20.0447 25.1894 20.1986 25.025L24.3529 20.5913H24.3373L24.3439 20.5835L24.3447 20.5826C24.3743 20.547 24.4039 20.5112 24.4332 20.475C24.7189 20.1222 24.9699 19.7427 25.1826 19.3411ZM19.0021 18.728C18.3468 18.728 17.7184 18.4663 17.2551 18.0005C16.7918 17.5347 16.5315 16.9029 16.5315 16.2442C16.5315 15.5854 16.7918 14.9536 17.2551 14.4878C17.7184 14.022 18.3468 13.7603 19.0021 13.7603C19.6573 13.7603 20.2857 14.022 20.749 14.4878C21.2123 14.9536 21.4726 15.5854 21.4726 16.2442C21.4726 16.9029 21.2123 17.5347 20.749 18.0005C20.2857 18.4663 19.6573 18.728 19.0021 18.728Z" fill="white"/>
</svg>
