<svg width="45" height="55" viewBox="0 0 45 55" fill="none" xmlns="http://www.w3.org/2000/svg">
<path d="M4.584 43.012H6.144C6.144 43.868 6.072 44.688 5.928 45.472C5.792 46.256 5.548 47.004 5.196 47.716C4.844 48.42 4.348 49.08 3.708 49.696C3.076 50.304 2.26 50.868 1.26 51.388L0.384 50.176C1.208 49.752 1.888 49.296 2.424 48.808C2.968 48.32 3.396 47.796 3.708 47.236C4.028 46.668 4.252 46.052 4.38 45.388C4.516 44.724 4.584 44 4.584 43.216V43.012ZM1.056 43.012H5.556V44.284H1.056V43.012ZM4.74 45.736V46.96L0.66 47.32L0.456 45.988L4.74 45.736ZM8.184 41.956H9.78V53.068H8.184V41.956ZM6.12 46.204H9.036V47.5H6.12V46.204ZM13.8231 48.46H15.4191V53.092H13.8231V48.46ZM17.7351 48.46H19.3311V53.092H17.7351V48.46ZM11.5311 48.136H21.5871V49.42H11.5311V48.136ZM12.6831 42.472H20.3871V46.948H12.6831V42.472ZM18.8271 43.732H14.2551V45.7H18.8271V43.732ZM30.2621 41.944H31.8461V53.056H30.2621V41.944ZM23.1461 43H24.7421V49.912H23.1461V43ZM23.1461 48.964H24.1301C24.9461 48.964 25.7981 48.932 26.6861 48.868C27.5741 48.796 28.4781 48.668 29.3981 48.484L29.5661 49.816C28.6221 50.016 27.6901 50.152 26.7701 50.224C25.8581 50.288 24.9781 50.32 24.1301 50.32H23.1461V48.964ZM34.1972 49.264H35.1572C35.8052 49.264 36.4132 49.26 36.9812 49.252C37.5492 49.236 38.1012 49.208 38.6372 49.168C39.1812 49.12 39.7372 49.052 40.3052 48.964L40.4492 50.236C39.8732 50.324 39.3052 50.392 38.7452 50.44C38.1852 50.488 37.6132 50.52 37.0292 50.536C36.4452 50.544 35.8212 50.548 35.1572 50.548H34.1972V49.264ZM34.1972 42.868H39.8252V44.164H35.7812V49.684H34.1972V42.868ZM35.4212 45.964H39.3572V47.212H35.4212V45.964ZM41.2652 41.956H42.8612V53.068H41.2652V41.956Z" fill="#7ADCDB"/>
<path d="M21.8485 17.2908C23.0334 17.2908 23.994 16.3303 23.994 15.1454C23.994 13.9605 23.0334 13 21.8485 13C20.6637 13 19.7031 13.9605 19.7031 15.1454C19.7031 16.3303 20.6637 17.2908 21.8485 17.2908Z" stroke="#7ADCDB" stroke-width="2" stroke-linecap="round" stroke-linejoin="round"/>
<path d="M29.559 17.2908C30.7439 17.2908 31.7044 16.3303 31.7044 15.1454C31.7044 13.9605 30.7439 13 29.559 13C28.3741 13 27.4136 13.9605 27.4136 15.1454C27.4136 16.3303 28.3741 17.2908 29.559 17.2908Z" stroke="#7ADCDB" stroke-width="2" stroke-linecap="round" stroke-linejoin="round"/>
<path d="M14.1454 17.2908C15.3303 17.2908 16.2908 16.3303 16.2908 15.1454C16.2908 13.9605 15.3303 13 14.1454 13C12.9605 13 12 13.9605 12 15.1454C12 16.3303 12.9605 17.2908 14.1454 17.2908Z" stroke="#7ADCDB" stroke-width="2" stroke-linecap="round" stroke-linejoin="round"/>
<path d="M21.799 2C12.5208 2 5 7.97012 5 15.3186C5 19.962 8.01521 24.0455 12.5725 26.4232L11.0563 32.5053C11.0368 32.5813 11.0403 32.6613 11.0663 32.7352C11.0923 32.8091 11.1397 32.8737 11.2024 32.9207C11.2651 32.9678 11.3403 32.9952 11.4186 32.9994C11.4969 33.0037 11.5746 32.9846 11.6421 32.9447L19.2146 28.4477C20.0716 28.5591 20.9348 28.6167 21.799 28.62C31.0773 28.62 38.5981 22.6671 38.5981 15.3186C38.5981 7.97012 31.0773 2 21.799 2Z" stroke="#7ADCDB" stroke-width="3.44" stroke-linecap="round" stroke-linejoin="round"/>
</svg>
