<svg width="56" height="55" viewBox="0 0 56 55" fill="none" xmlns="http://www.w3.org/2000/svg">
<path d="M32.1873 10.125C31.9117 13.8424 29.0936 16.875 25.9998 16.875C22.9061 16.875 20.083 13.8431 19.8123 10.125C19.5311 6.25781 22.2733 3.375 25.9998 3.375C29.7264 3.375 32.4686 6.32812 32.1873 10.125Z" stroke="#7ADCDB" stroke-width="3.48387" stroke-linecap="round" stroke-linejoin="round"/>
<path d="M26.0002 21.375C19.883 21.375 13.6744 24.75 12.5255 31.1203C12.387 31.8881 12.8215 32.625 13.6252 32.625H38.3752C39.1795 32.625 39.6141 31.8881 39.4756 31.1203C38.326 24.75 32.1174 21.375 26.0002 21.375Z" stroke="#7ADCDB" stroke-width="3.48387" stroke-miterlimit="10"/>
<path d="M0.816 43H6.132V50.368H0.816V43ZM4.56 44.248H2.388V49.108H4.56V44.248ZM7.584 41.956H9.192V53.068H7.584V41.956ZM8.832 46.144H10.8V47.464H8.832V46.144ZM19.1391 41.944H20.7471V53.092H19.1391V41.944ZM14.7591 42.724C16.4391 42.724 17.6751 44.26 17.6751 46.684C17.6751 49.132 16.4391 50.668 14.7591 50.668C13.0791 50.668 11.8431 49.132 11.8431 46.684C11.8431 44.26 13.0791 42.724 14.7591 42.724ZM14.7591 44.176C13.9311 44.176 13.3671 45.052 13.3671 46.684C13.3671 48.34 13.9311 49.228 14.7591 49.228C15.5871 49.228 16.1391 48.34 16.1391 46.684C16.1391 45.052 15.5871 44.176 14.7591 44.176ZM30.6821 41.956H32.2061V53.068H30.6821V41.956ZM27.4301 46H28.9181V47.404H27.4301V46ZM28.4741 42.172H29.9741V52.552H28.4741V42.172ZM22.6421 43.204H27.6941V44.476H22.6421V43.204ZM22.6181 50.548L22.4501 49.252C23.8421 49.252 26.1821 49.216 27.8621 48.988L27.9701 50.14C26.2421 50.512 23.9861 50.548 22.6181 50.548ZM23.3261 44.02H24.7541V49.588H23.3261V44.02ZM25.5581 44.02H26.9981V49.588H25.5581V44.02ZM41.2172 41.944H42.8252V53.092H41.2172V41.944ZM36.8372 42.724C38.5172 42.724 39.7532 44.26 39.7532 46.684C39.7532 49.132 38.5172 50.668 36.8372 50.668C35.1572 50.668 33.9212 49.132 33.9212 46.684C33.9212 44.26 35.1572 42.724 36.8372 42.724ZM36.8372 44.176C36.0092 44.176 35.4452 45.052 35.4452 46.684C35.4452 48.34 36.0092 49.228 36.8372 49.228C37.6652 49.228 38.2172 48.34 38.2172 46.684C38.2172 45.052 37.6652 44.176 36.8372 44.176ZM47.3123 43.708H48.5843V44.956C48.5843 47.524 47.5403 50.032 45.4523 50.98L44.5522 49.72C46.4123 48.892 47.3123 46.84 47.3123 44.956V43.708ZM47.6723 43.708H48.9323V44.956C48.9323 46.756 49.8203 48.676 51.6803 49.444L50.8163 50.704C48.7043 49.792 47.6723 47.428 47.6723 44.956V43.708ZM44.9963 43.024H51.2243V44.332H44.9963V43.024ZM52.2563 41.956H53.8643V53.068H52.2563V41.956Z" fill="#7ADCDB"/>
</svg>
