<svg width="60" height="60" viewBox="0 0 60 60" fill="none" xmlns="http://www.w3.org/2000/svg">
<circle cx="30" cy="30" r="30" fill="url(#paint0_linear_171_537)"/>
<mask id="path-2-inside-1_171_537" fill="white">
<path d="M42.7874 23.5002L36.8131 17.7255C36.6144 17.5334 36.3799 17.3823 36.1229 17.2809C35.8659 17.1795 35.5914 17.1297 35.3151 17.1343C35.0389 17.139 34.7662 17.198 34.5128 17.3081C34.2593 17.4181 34.03 17.577 33.838 17.7757L17.9005 34.2602C17.7076 34.4582 17.556 34.6925 17.4545 34.9495C17.3529 35.2065 17.3035 35.4812 17.309 35.7575L17.4082 41.6327C17.4176 42.1906 17.6482 42.7219 18.0494 43.1097C18.4505 43.4975 18.9892 43.7101 19.5471 43.7007L41.6333 43.328C41.9123 43.3233 42.1779 43.208 42.3718 43.0074C42.5657 42.8068 42.672 42.5375 42.6673 42.2585C42.6626 41.9796 42.5473 41.7139 42.3467 41.52C42.1462 41.3261 41.8768 41.2198 41.5978 41.2245L28.3619 41.4479L42.8376 26.4753C43.0297 26.2767 43.1807 26.0421 43.2822 25.7851C43.3836 25.5281 43.4334 25.2536 43.4287 24.9774C43.4241 24.7011 43.365 24.4284 43.255 24.175C43.1449 23.9215 42.9861 23.6922 42.7874 23.5002ZM30.7862 23.9578L33.0174 26.115L22.0715 37.4367L19.8403 35.2795L30.7862 23.9578ZM19.5116 41.5972L19.448 37.8255L23.2834 41.5336L19.5116 41.5972ZM25.8146 41.0556L23.5848 38.8984L34.5294 27.5768L36.7606 29.7339L25.8146 41.0556ZM38.2224 28.2219L32.2494 22.4458L35.3513 19.2374L41.3243 25.0135L38.2224 28.2219Z"/>
</mask>
<path d="M42.7874 23.5002L36.8131 17.7255C36.6144 17.5334 36.3799 17.3823 36.1229 17.2809C35.8659 17.1795 35.5914 17.1297 35.3151 17.1343C35.0389 17.139 34.7662 17.198 34.5128 17.3081C34.2593 17.4181 34.03 17.577 33.838 17.7757L17.9005 34.2602C17.7076 34.4582 17.556 34.6925 17.4545 34.9495C17.3529 35.2065 17.3035 35.4812 17.309 35.7575L17.4082 41.6327C17.4176 42.1906 17.6482 42.7219 18.0494 43.1097C18.4505 43.4975 18.9892 43.7101 19.5471 43.7007L41.6333 43.328C41.9123 43.3233 42.1779 43.208 42.3718 43.0074C42.5657 42.8068 42.672 42.5375 42.6673 42.2585C42.6626 41.9796 42.5473 41.7139 42.3467 41.52C42.1462 41.3261 41.8768 41.2198 41.5978 41.2245L28.3619 41.4479L42.8376 26.4753C43.0297 26.2767 43.1807 26.0421 43.2822 25.7851C43.3836 25.5281 43.4334 25.2536 43.4287 24.9774C43.4241 24.7011 43.365 24.4284 43.255 24.175C43.1449 23.9215 42.9861 23.6922 42.7874 23.5002ZM30.7862 23.9578L33.0174 26.115L22.0715 37.4367L19.8403 35.2795L30.7862 23.9578ZM19.5116 41.5972L19.448 37.8255L23.2834 41.5336L19.5116 41.5972ZM25.8146 41.0556L23.5848 38.8984L34.5294 27.5768L36.7606 29.7339L25.8146 41.0556ZM38.2224 28.2219L32.2494 22.4458L35.3513 19.2374L41.3243 25.0135L38.2224 28.2219Z" fill="white"/>
<path d="M42.7874 23.5002L35.4769 31.0633L35.4769 31.0634L42.7874 23.5002ZM36.8131 17.7255L29.5009 25.2869L29.5026 25.2886L36.8131 17.7255ZM35.3151 17.1343L35.1377 6.61707L35.3151 17.1343ZM33.838 17.7757L41.4003 25.087L41.4011 25.0861L33.838 17.7757ZM17.9005 34.2602L25.4336 41.6017L25.4483 41.5866L25.4628 41.5716L17.9005 34.2602ZM17.309 35.7575L27.8263 35.58L27.826 35.5632L27.8257 35.5464L17.309 35.7575ZM17.4082 41.6327L6.89093 41.8102L17.4082 41.6327ZM28.3619 41.4479L20.7996 34.1366L3.14847 52.3936L28.5394 51.9651L28.3619 41.4479ZM42.8376 26.4753L35.2761 19.1631L35.2753 19.164L42.8376 26.4753ZM43.4287 24.9774L32.9115 25.1548L43.4287 24.9774ZM30.7862 23.9578L38.0976 16.3955L30.5353 9.0842L23.2239 16.6465L30.7862 23.9578ZM33.0174 26.115L40.5797 33.4263L47.8911 25.864L40.3288 18.5527L33.0174 26.115ZM22.0715 37.4367L14.7601 44.999L22.3225 52.3103L29.6338 44.748L22.0715 37.4367ZM19.8403 35.2795L12.278 27.9682L4.96666 35.5305L12.529 42.8418L19.8403 35.2795ZM19.5116 41.5972L8.99438 41.7747L9.17184 52.2919L19.6891 52.1145L19.5116 41.5972ZM19.448 37.8255L26.7593 30.2632L8.50229 12.6121L8.93073 38.0029L19.448 37.8255ZM23.2834 41.5336L23.4608 52.0508L48.8517 51.6224L30.5947 33.9713L23.2834 41.5336ZM25.8146 41.0556L18.501 48.6157L26.0634 55.9315L33.3769 48.3669L25.8146 41.0556ZM23.5848 38.8984L16.022 31.5875L8.71376 39.1476L16.2712 46.4585L23.5848 38.8984ZM34.5294 27.5768L41.8407 20.0145L34.278 12.7027L26.9667 20.2659L34.5294 27.5768ZM36.7606 29.7339L44.3229 37.0452L51.6342 29.4829L44.0719 22.1716L36.7606 29.7339ZM38.2224 28.2219L30.9102 35.7834L38.4725 43.0964L45.7847 35.5333L38.2224 28.2219ZM32.2494 22.4458L24.687 15.1345L17.3765 22.696L24.9372 30.0073L32.2494 22.4458ZM35.3513 19.2374L42.6635 11.6759L35.1011 4.36295L27.789 11.9261L35.3513 19.2374ZM41.3243 25.0135L48.8866 32.3249L56.1971 24.7634L48.6365 17.452L41.3243 25.0135ZM50.0979 15.9371L44.1236 10.1623L29.5026 25.2886L35.4769 31.0633L50.0979 15.9371ZM44.1253 10.164C42.9335 9.01154 41.5264 8.10512 39.9843 7.49653L32.2615 27.0653C31.2335 26.6595 30.2954 26.0552 29.5009 25.2869L44.1253 10.164ZM39.9843 7.49653C38.4422 6.88794 36.7953 6.5891 35.1377 6.61707L35.4926 27.6516C34.3875 27.6702 33.2896 27.471 32.2615 27.0653L39.9843 7.49653ZM35.1377 6.61707C33.4801 6.64504 31.8442 6.99927 30.3235 7.65954L38.7021 26.9566C37.6883 27.3968 36.5977 27.6329 35.4926 27.6516L35.1377 6.61707ZM30.3235 7.65954C28.8028 8.3198 27.4271 9.27317 26.2749 10.4652L41.4011 25.0861C40.633 25.8808 39.7158 26.5164 38.7021 26.9566L30.3235 7.65954ZM26.2757 10.4643L10.3382 26.9489L25.4628 41.5716L41.4003 25.087L26.2757 10.4643ZM10.3674 26.9188C9.20156 28.1151 8.28514 29.5312 7.67141 31.0848L27.2375 38.8142C26.8269 39.8537 26.2137 40.8012 25.4336 41.6017L10.3674 26.9188ZM7.67141 31.0848C7.05768 32.6384 6.75889 34.2985 6.79241 35.9686L27.8257 35.5464C27.8481 36.6639 27.6482 37.7747 27.2375 38.8142L7.67141 31.0848ZM6.79179 35.935L6.89093 41.8102L27.9254 41.4552L27.8263 35.58L6.79179 35.935ZM6.89093 41.8102C6.94741 45.1574 8.33125 48.3451 10.738 50.672L25.3607 35.5474C26.9652 37.0986 27.8878 39.2238 27.9254 41.4552L6.89093 41.8102ZM10.738 50.672C13.1448 52.9989 16.3774 54.2744 19.7246 54.2179L19.3697 33.1834C21.6011 33.1458 23.7562 33.9961 25.3607 35.5474L10.738 50.672ZM19.7246 54.2179L41.8108 53.8452L41.4559 32.8107L19.3697 33.1834L19.7246 54.2179ZM41.8108 53.8452C44.879 53.7935 47.8011 52.525 49.9341 50.3187L34.8095 35.6961C36.5547 33.8909 38.9455 32.8531 41.4559 32.8107L41.8108 53.8452ZM49.9341 50.3187C52.0671 48.1125 53.2363 45.1493 53.1846 42.0811L32.1501 42.436C32.1077 39.9256 33.0643 37.5012 34.8095 35.6961L49.9341 50.3187ZM53.1846 42.0811C53.1328 39.0128 51.8643 36.0907 49.6581 33.9577L35.0354 49.0823C33.2303 47.3372 32.1924 44.9464 32.1501 42.436L53.1846 42.0811ZM49.6581 33.9577C47.4518 31.8247 44.4886 30.6555 41.4204 30.7073L41.7753 51.7418C39.2649 51.7842 36.8405 50.8275 35.0354 49.0823L49.6581 33.9577ZM41.4204 30.7073L28.1844 30.9306L28.5394 51.9651L41.7753 51.7418L41.4204 30.7073ZM35.9242 48.7592L50.3999 33.7866L35.2753 19.164L20.7996 34.1366L35.9242 48.7592ZM50.3991 33.7875C51.5516 32.5957 52.458 31.1886 53.0665 29.6465L33.4978 21.9237C33.9035 20.8957 34.5078 19.9576 35.2761 19.1631L50.3991 33.7875ZM53.0665 29.6465C53.6751 28.1044 53.974 26.4575 53.946 24.7999L32.9115 25.1548C32.8928 24.0497 33.0921 22.9518 33.4978 21.9237L53.0665 29.6465ZM53.946 24.7999C53.918 23.1423 53.5638 21.5064 52.9035 19.9857L33.6065 28.3643C33.1663 27.3505 32.9301 26.2599 32.9115 25.1548L53.946 24.7999ZM52.9035 19.9857C52.2433 18.465 51.2899 17.0893 50.0979 15.9371L35.4769 31.0634C34.6822 30.2952 34.0466 29.378 33.6065 28.3643L52.9035 19.9857ZM23.4749 31.5201L25.7061 33.6773L40.3288 18.5527L38.0976 16.3955L23.4749 31.5201ZM25.4551 18.8036L14.5092 30.1253L29.6338 44.748L40.5797 33.4263L25.4551 18.8036ZM29.3828 29.8744L27.1516 27.7172L12.529 42.8418L14.7601 44.999L29.3828 29.8744ZM27.4026 42.5909L38.3486 31.2692L23.2239 16.6465L12.278 27.9682L27.4026 42.5909ZM30.0289 41.4198L29.9652 37.648L8.93073 38.0029L8.99438 41.7747L30.0289 41.4198ZM12.1367 45.3878L15.972 49.0959L30.5947 33.9713L26.7593 30.2632L12.1367 45.3878ZM23.1059 31.0163L19.3342 31.08L19.6891 52.1145L23.4608 52.0508L23.1059 31.0163ZM33.1282 33.4955L30.8984 31.3383L16.2712 46.4585L18.501 48.6157L33.1282 33.4955ZM31.1475 46.2093L42.0921 34.8876L26.9667 20.2659L16.022 31.5875L31.1475 46.2093ZM27.2181 35.1391L29.4493 37.2962L44.0719 22.1716L41.8407 20.0145L27.2181 35.1391ZM29.1983 22.4226L18.2523 33.7443L33.3769 48.3669L44.3229 37.0452L29.1983 22.4226ZM45.5345 20.6604L39.5615 14.8844L24.9372 30.0073L30.9102 35.7834L45.5345 20.6604ZM39.8117 29.7572L42.9136 26.5488L27.789 11.9261L24.687 15.1345L39.8117 29.7572ZM28.0391 26.7989L34.0121 32.575L48.6365 17.452L42.6635 11.6759L28.0391 26.7989ZM33.762 17.7022L30.6601 20.9106L45.7847 35.5333L48.8866 32.3249L33.762 17.7022Z" fill="white" mask="url(#path-2-inside-1_171_537)"/>
<defs>
<linearGradient id="paint0_linear_171_537" x1="1.26252e-06" y1="0.390525" x2="69.9425" y2="16.5345" gradientUnits="userSpaceOnUse">
<stop stop-color="#D1FFD8"/>
<stop offset="1" stop-color="#7ADCDB"/>
</linearGradient>
</defs>
</svg>
