<svg xmlns="http://www.w3.org/2000/svg" width="9" height="10" viewBox="0 0 9 10" fill="none">
  <mask id="path-1-inside-1_161_1145" fill="white">
    <path d="M8 8.15234H1V3.17036H8M6.5 0V0.905816H2.5V0H1.5V0.905816H1C0.445 0.905816 0 1.3089 0 1.81163V8.15234C0 8.39258 0.105357 8.62298 0.292893 8.79285C0.48043 8.96273 0.734784 9.05816 1 9.05816H8C8.26522 9.05816 8.51957 8.96273 8.70711 8.79285C8.89464 8.62298 9 8.39258 9 8.15234V1.81163C9 1.57139 8.89464 1.341 8.70711 1.17112C8.51957 1.00125 8.26522 0.905816 8 0.905816H7.5V0M7 4.98199H4.5V7.24653H7V4.98199Z"/>
  </mask>
  <path d="M8 8.15234H1V3.17036H8M6.5 0V0.905816H2.5V0H1.5V0.905816H1C0.445 0.905816 0 1.3089 0 1.81163V8.15234C0 8.39258 0.105357 8.62298 0.292893 8.79285C0.48043 8.96273 0.734784 9.05816 1 9.05816H8C8.26522 9.05816 8.51957 8.96273 8.70711 8.79285C8.89464 8.62298 9 8.39258 9 8.15234V1.81163C9 1.57139 8.89464 1.341 8.70711 1.17112C8.51957 1.00125 8.26522 0.905816 8 0.905816H7.5V0M7 4.98199H4.5V7.24653H7V4.98199Z" fill="white"/>
  <path d="M1 8.15234H-0.365818V9.51816H1V8.15234ZM1 3.17036V1.80454H-0.365818V3.17036H1ZM6.5 0.905816V2.27163H7.86582V0.905816H6.5ZM2.5 0.905816H1.13418V2.27163H2.5V0.905816ZM2.5 0H3.86582V-1.36582H2.5V0ZM1.5 0V-1.36582H0.134182V0H1.5ZM1.5 0.905816V2.27163H2.86582V0.905816H1.5ZM0 8.15234H-1.36582H0ZM8 0.905816V-0.460002V0.905816ZM7.5 0.905816H6.13418V2.27163H7.5V0.905816ZM7 4.98199H8.36582V3.61617H7V4.98199ZM4.5 4.98199V3.61617H3.13418V4.98199H4.5ZM4.5 7.24653H3.13418V8.61235H4.5V7.24653ZM7 7.24653V8.61235H8.36582V7.24653H7ZM8 6.78653H1V9.51816H8V6.78653ZM2.36582 8.15234V3.17036H-0.365818V8.15234H2.36582ZM1 4.53617H8V1.80454H1V4.53617ZM5.13418 0V0.905816H7.86582V0H5.13418ZM6.5 -0.460002H2.5V2.27163H6.5V-0.460002ZM3.86582 0.905816V0H1.13418V0.905816H3.86582ZM2.5 -1.36582H1.5V1.36582H2.5V-1.36582ZM0.134182 0V0.905816H2.86582V0H0.134182ZM1.5 -0.460002H1V2.27163H1.5V-0.460002ZM1 -0.460002C-0.179062 -0.460002 -1.36582 0.430603 -1.36582 1.81163H1.36582C1.36582 1.98001 1.28775 2.11097 1.20881 2.18247C1.13265 2.25146 1.0538 2.27163 1 2.27163V-0.460002ZM-1.36582 1.81163V8.15234H1.36582V1.81163H-1.36582ZM-1.36582 8.15234C-1.36582 8.80087 -1.08021 9.39192 -0.624039 9.80513L1.20983 7.78058C1.29092 7.85404 1.36582 7.98429 1.36582 8.15234H-1.36582ZM-0.624039 9.80513C-0.172356 10.2143 0.413755 10.424 1 10.424V7.69234C1.05581 7.69234 1.13322 7.71119 1.20983 7.78058L-0.624039 9.80513ZM1 10.424H8V7.69234H1V10.424ZM8 10.424C8.58625 10.424 9.17236 10.2143 9.62404 9.80513L7.79017 7.78058C7.86678 7.71119 7.94419 7.69234 8 7.69234V10.424ZM9.62404 9.80513C10.0802 9.39192 10.3658 8.80087 10.3658 8.15234H7.63418C7.63418 7.98429 7.70908 7.85404 7.79017 7.78058L9.62404 9.80513ZM10.3658 8.15234V1.81163H7.63418V8.15234H10.3658ZM10.3658 1.81163C10.3658 1.16311 10.0802 0.572053 9.62404 0.158851L7.79017 2.1834C7.70908 2.10994 7.63418 1.97968 7.63418 1.81163H10.3658ZM9.62404 0.158851C9.17236 -0.250291 8.58624 -0.460002 8 -0.460002V2.27163C7.94419 2.27163 7.86678 2.25279 7.79017 2.1834L9.62404 0.158851ZM8 -0.460002H7.5V2.27163H8V-0.460002ZM8.86582 0.905816V0H6.13418V0.905816H8.86582ZM7 3.61617H4.5V6.34781H7V3.61617ZM3.13418 4.98199V7.24653H5.86582V4.98199H3.13418ZM4.5 8.61235H7V5.88071H4.5V8.61235ZM8.36582 7.24653V4.98199H5.63418V7.24653H8.36582Z" fill="#7ADCDB" mask="url(#path-1-inside-1_161_1145)"/>
</svg>