<svg xmlns="http://www.w3.org/2000/svg" width="45" height="42" viewBox="0 0 45 42" fill="none">
  <path d="M33.75 22.5C33.75 25.4837 32.5647 28.3452 30.455 30.455C28.3452 32.5647 25.4837 33.75 22.5 33.75C19.5163 33.75 16.6548 32.5647 14.545 30.455C12.4353 28.3452 11.25 25.4837 11.25 22.5C11.25 19.5163 12.4353 16.6548 14.545 14.545C16.6548 12.4353 19.5163 11.25 22.5 11.25C25.4837 11.25 28.3452 12.4353 30.455 14.545C32.5647 16.6548 33.75 19.5163 33.75 22.5ZM30 22.5C30 20.5109 29.2098 18.6032 27.8033 17.1967C26.3968 15.7902 24.4891 15 22.5 15C20.5109 15 18.6032 15.7902 17.1967 17.1967C15.7902 18.6032 15 20.5109 15 22.5C15 24.4891 15.7902 26.3968 17.1967 27.8033C18.6032 29.2098 20.5109 30 22.5 30C24.4891 30 26.3968 29.2098 27.8033 27.8033C29.2098 26.3968 30 24.4891 30 22.5ZM17.3175 0C16.2723 3.53063e-05 15.2478 0.291272 14.3589 0.841043C13.47 1.39081 12.7518 2.17738 12.285 3.1125L10.0912 7.5H7.5C5.51088 7.5 3.60322 8.29018 2.1967 9.6967C0.790176 11.1032 0 13.0109 0 15V33.75C0 35.7391 0.790176 37.6468 2.1967 39.0533C3.60322 40.4598 5.51088 41.25 7.5 41.25H37.5C39.4891 41.25 41.3968 40.4598 42.8033 39.0533C44.2098 37.6468 45 35.7391 45 33.75V15C45 13.0109 44.2098 11.1032 42.8033 9.6967C41.3968 8.29018 39.4891 7.5 37.5 7.5H34.9087L32.715 3.1125C32.2482 2.17738 31.53 1.39081 30.6411 0.841043C29.7522 0.291272 28.7277 3.53063e-05 27.6825 0H17.3175ZM15.6413 4.785C15.7971 4.47395 16.0365 4.2124 16.3325 4.02961C16.6285 3.84683 16.9696 3.75001 17.3175 3.75H27.6825C28.0304 3.75001 28.3715 3.84683 28.6675 4.02961C28.9635 4.2124 29.2029 4.47395 29.3588 4.785L32.0737 10.215C32.2296 10.5261 32.469 10.7876 32.765 10.9704C33.061 11.1532 33.4021 11.25 33.75 11.25H37.5C38.4946 11.25 39.4484 11.6451 40.1516 12.3484C40.8549 13.0516 41.25 14.0054 41.25 15V33.75C41.25 34.7446 40.8549 35.6984 40.1516 36.4016C39.4484 37.1049 38.4946 37.5 37.5 37.5H7.5C6.50544 37.5 5.55161 37.1049 4.84835 36.4016C4.14509 35.6984 3.75 34.7446 3.75 33.75V15C3.75 14.0054 4.14509 13.0516 4.84835 12.3484C5.55161 11.6451 6.50544 11.25 7.5 11.25H11.25C11.5979 11.25 11.939 11.1532 12.235 10.9704C12.531 10.7876 12.7704 10.5261 12.9262 10.215L15.6413 4.785Z" fill="#AAAAAA"/>
</svg>