<svg xmlns="http://www.w3.org/2000/svg" width="20" height="22" viewBox="0 0 20 22" fill="none">
  <path d="M10.4799 21.8099L10.4733 21.8052L10.4813 21.8048L10.4799 21.8099ZM10.4799 21.8099L10.4949 21.8139M10.4799 21.8099L10.4837 21.8047L10.4917 21.8042L10.4949 21.8139M10.4949 21.8139L10.5069 21.8099M10.4949 21.8139L10.4975 21.8043L10.5031 21.8046L10.5069 21.8099M10.5069 21.8099L10.5081 21.8091L10.5088 21.8049L10.5052 21.8047L10.5069 21.8099Z" stroke="#7ADCDB" stroke-width="5"/>
  <mask id="path-2-inside-1_406_4" fill="white">
    <path fill-rule="evenodd" clip-rule="evenodd" d="M8.50001 1.91687e-08C7.1446 0.000115492 5.80887 0.324364 4.60427 0.945694C3.39966 1.56702 2.3611 2.46742 1.57525 3.57175C0.789389 4.67609 0.279019 5.95235 0.0867177 7.29404C-0.105584 8.63574 0.0257587 10.004 0.469788 11.2846C0.913817 12.5652 1.65766 13.7211 2.63925 14.6557C3.62084 15.5904 4.81171 16.2768 6.11252 16.6576C7.41333 17.0384 8.78635 17.1026 10.117 16.8449C11.4477 16.5872 12.6975 16.015 13.762 15.176L17.414 18.828C17.6026 19.0102 17.8552 19.111 18.1174 19.1087C18.3796 19.1064 18.6304 19.0012 18.8158 18.8158C19.0012 18.6304 19.1064 18.3796 19.1087 18.1174C19.111 17.8552 19.0102 17.6026 18.828 17.414L15.176 13.762C16.164 12.5086 16.7792 11.0024 16.9511 9.41573C17.123 7.82905 16.8448 6.22602 16.1482 4.79009C15.4517 3.35417 14.3649 2.14336 13.0123 1.29623C11.6597 0.449106 10.096 -0.000107143 8.50001 1.91687e-08ZM2.00001 8.5C2.00001 6.77609 2.68483 5.12279 3.90382 3.90381C5.1228 2.68482 6.7761 2 8.50001 2C10.2239 2 11.8772 2.68482 13.0962 3.90381C14.3152 5.12279 15 6.77609 15 8.5C15 10.2239 14.3152 11.8772 13.0962 13.0962C11.8772 14.3152 10.2239 15 8.50001 15C6.7761 15 5.1228 14.3152 3.90382 13.0962C2.68483 11.8772 2.00001 10.2239 2.00001 8.5Z"/>
  </mask>
  <path fill-rule="evenodd" clip-rule="evenodd" d="M8.50001 1.91687e-08C7.1446 0.000115492 5.80887 0.324364 4.60427 0.945694C3.39966 1.56702 2.3611 2.46742 1.57525 3.57175C0.789389 4.67609 0.279019 5.95235 0.0867177 7.29404C-0.105584 8.63574 0.0257587 10.004 0.469788 11.2846C0.913817 12.5652 1.65766 13.7211 2.63925 14.6557C3.62084 15.5904 4.81171 16.2768 6.11252 16.6576C7.41333 17.0384 8.78635 17.1026 10.117 16.8449C11.4477 16.5872 12.6975 16.015 13.762 15.176L17.414 18.828C17.6026 19.0102 17.8552 19.111 18.1174 19.1087C18.3796 19.1064 18.6304 19.0012 18.8158 18.8158C19.0012 18.6304 19.1064 18.3796 19.1087 18.1174C19.111 17.8552 19.0102 17.6026 18.828 17.414L15.176 13.762C16.164 12.5086 16.7792 11.0024 16.9511 9.41573C17.123 7.82905 16.8448 6.22602 16.1482 4.79009C15.4517 3.35417 14.3649 2.14336 13.0123 1.29623C11.6597 0.449106 10.096 -0.000107143 8.50001 1.91687e-08ZM2.00001 8.5C2.00001 6.77609 2.68483 5.12279 3.90382 3.90381C5.1228 2.68482 6.7761 2 8.50001 2C10.2239 2 11.8772 2.68482 13.0962 3.90381C14.3152 5.12279 15 6.77609 15 8.5C15 10.2239 14.3152 11.8772 13.0962 13.0962C11.8772 14.3152 10.2239 15 8.50001 15C6.7761 15 5.1228 14.3152 3.90382 13.0962C2.68483 11.8772 2.00001 10.2239 2.00001 8.5Z" fill="#7ADCDB"/>
  <path d="M8.50001 1.91687e-08L8.49927 -11H8.49907L8.50001 1.91687e-08ZM13.762 15.176L21.5402 7.39782L14.6294 0.487035L6.9533 6.53647L13.762 15.176ZM17.414 18.828L9.63584 26.6062L9.70343 26.6738L9.77218 26.7402L17.414 18.828ZM18.828 17.414L26.7402 9.77217L26.6738 9.70342L26.6062 9.63583L18.828 17.414ZM15.176 13.762L6.53722 6.95235L0.48629 14.6286L7.39783 21.5402L15.176 13.762ZM2.00001 8.5H-8.99999H2.00001ZM8.50001 2V-9V2ZM15 8.5H26H15ZM8.49907 -11C5.38961 -10.9997 2.32529 -10.2559 -0.438222 -8.83047L9.64675 10.7219C9.29246 10.9046 8.8996 11 8.50095 11L8.49907 -11ZM-0.438222 -8.83047C-3.20173 -7.40506 -5.5843 -5.33946 -7.38715 -2.80598L10.5376 9.94948C10.3065 10.2743 10.001 10.5391 9.64675 10.7219L-0.438222 -8.83047ZM-7.38715 -2.80598C-9.19 -0.272498 -10.3608 2.65539 -10.802 5.73339L10.9754 8.85469C10.9189 9.24931 10.7688 9.62468 10.5376 9.94948L-7.38715 -2.80598ZM-10.802 5.73339C-11.2432 8.8114 -10.9419 11.9503 -9.9232 14.8882L10.8628 7.681C10.9934 8.05766 11.032 8.46008 10.9754 8.85469L-10.802 5.73339ZM-9.9232 14.8882C-8.90455 17.826 -7.19809 20.4777 -4.94621 22.622L10.2247 6.68949C10.5134 6.96439 10.7322 7.30435 10.8628 7.681L-9.9232 14.8882ZM-4.94621 22.622C-2.69433 24.7662 0.0376866 26.3408 3.0219 27.2145L9.20315 6.10071C9.58574 6.21271 9.936 6.41459 10.2247 6.68949L-4.94621 22.622ZM3.0219 27.2145C6.00611 28.0882 9.15597 28.2355 12.2087 27.6442L8.02535 6.04561C8.41673 5.96981 8.82056 5.9887 9.20315 6.10071L3.0219 27.2145ZM12.2087 27.6442C15.2614 27.0529 18.1285 25.7402 20.5707 23.8155L6.9533 6.53647C7.26641 6.28971 7.63398 6.12142 8.02535 6.04561L12.2087 27.6442ZM5.98384 22.9542L9.63584 26.6062L25.1922 11.0498L21.5402 7.39782L5.98384 22.9542ZM9.77218 26.7402C12.0354 28.9261 15.0666 30.1356 18.213 30.1083L18.0218 8.10909C20.6438 8.0863 23.1698 9.09424 25.0558 10.9158L9.77218 26.7402ZM18.213 30.1083C21.3593 30.0809 24.3691 28.8189 26.594 26.594L11.0377 11.0376C12.8918 9.18354 15.3999 8.13187 18.0218 8.10909L18.213 30.1083ZM26.594 26.594C28.8189 24.3691 30.0809 21.3593 30.1083 18.213L8.1091 18.0218C8.13188 15.3999 9.18355 12.8918 11.0377 11.0376L26.594 26.594ZM30.1083 18.213C30.1356 15.0666 28.9261 12.0354 26.7402 9.77217L10.9158 25.0558C9.09425 23.1698 8.08631 20.6438 8.1091 18.0218L30.1083 18.213ZM26.6062 9.63583L22.9542 5.98383L7.39783 21.5402L11.0498 25.1922L26.6062 9.63583ZM23.8148 20.5716C26.0814 17.6962 27.4926 14.2408 27.8871 10.6008L6.01513 8.23067C6.0657 7.76401 6.24663 7.321 6.53722 6.95235L23.8148 20.5716ZM27.8871 10.6008C28.2815 6.96077 27.6432 3.28323 26.0452 -0.010962L6.25127 9.59115C6.04639 9.16881 5.96456 8.69733 6.01513 8.23067L27.8871 10.6008ZM26.0452 -0.010962C24.4472 -3.30515 21.954 -6.08289 18.851 -8.02629L7.1736 10.6188C6.77578 10.3696 6.45615 10.0135 6.25127 9.59115L26.0452 -0.010962ZM18.851 -8.02629C15.748 -9.9697 12.1606 -11.0002 8.49927 -11L8.50075 11C8.03135 11 7.57142 10.8679 7.1736 10.6188L18.851 -8.02629ZM13 8.5C13 9.69347 12.5259 10.8381 11.682 11.682L-3.87436 -3.87437C-7.15625 -0.592481 -8.99999 3.85871 -8.99999 8.5H13ZM11.682 11.682C10.8381 12.5259 9.69348 13 8.50001 13V-9C3.85872 -9 -0.592472 -7.15626 -3.87436 -3.87437L11.682 11.682ZM8.50001 13C7.30654 13 6.16194 12.5259 5.31803 11.682L20.8744 -3.87437C17.5925 -7.15626 13.1413 -9 8.50001 -9V13ZM5.31803 11.682C4.47411 10.8381 4.00001 9.69347 4.00001 8.5H26C26 3.85871 24.1563 -0.592481 20.8744 -3.87437L5.31803 11.682ZM4.00001 8.5C4.00001 7.30653 4.47411 6.16193 5.31803 5.31802L20.8744 20.8744C24.1563 17.5925 26 13.1413 26 8.5H4.00001ZM5.31803 5.31802C6.16194 4.47411 7.30654 4 8.50001 4V26C13.1413 26 17.5925 24.1563 20.8744 20.8744L5.31803 5.31802ZM8.50001 4C9.69348 4 10.8381 4.47411 11.682 5.31802L-3.87436 20.8744C-0.592472 24.1563 3.85872 26 8.50001 26V4ZM11.682 5.31802C12.5259 6.16193 13 7.30653 13 8.5H-8.99999C-8.99999 13.1413 -7.15625 17.5925 -3.87436 20.8744L11.682 5.31802Z" fill="#7ADCDB" mask="url(#path-2-inside-1_406_4)"/>
</svg>