<svg width="23" height="20" viewBox="0 0 23 20" fill="none" xmlns="http://www.w3.org/2000/svg">
<path d="M3.06101 3.44118C2.42155 3.44118 1.80827 3.68288 1.3561 4.11311C0.903929 4.54334 0.649902 5.12686 0.649902 5.73529V17.2059C0.649902 17.8143 0.903929 18.3978 1.3561 18.8281C1.80827 19.2583 2.42155 19.5 3.06101 19.5H19.9388C20.5783 19.5 21.1915 19.2583 21.6437 18.8281C22.0959 18.3978 22.3499 17.8143 22.3499 17.2059V5.73529C22.3499 5.12686 22.0959 4.54334 21.6437 4.11311C21.1915 3.68288 20.5783 3.44118 19.9388 3.44118H3.06101ZM3.06101 16.0588L7.28046 10.8971L10.2943 14.3382L14.5138 9.17647L19.9388 16.0588H3.06101ZM18.7332 0C19.3727 0 19.986 0.241701 20.4381 0.671931C20.8903 1.10216 21.1443 1.68568 21.1443 2.29412H1.85546C1.85546 1.68568 2.10948 1.10216 2.56166 0.671931C3.01383 0.241701 3.6271 0 4.26657 0H18.7332Z" fill="white"/>
</svg>
