<svg width="19" height="17" viewBox="0 0 19 17" fill="none" xmlns="http://www.w3.org/2000/svg">
<path id="Vector" d="M13.5948 0C11.9495 0 10.4893 0.64944 9.5 1.76569C8.51069 0.64944 7.05047 0 5.40517 0C3.97216 0.00173383 2.59834 0.571762 1.58505 1.58505C0.571762 2.59834 0.00173383 3.97216 0 5.40517C0 11.3296 8.66547 16.0632 9.03401 16.2622C9.17722 16.3393 9.33734 16.3797 9.5 16.3797C9.66266 16.3797 9.82278 16.3393 9.96599 16.2622C10.3345 16.0632 19 11.3296 19 5.40517C18.9983 3.97216 18.4282 2.59834 17.4149 1.58505C16.4017 0.571762 15.0278 0.00173383 13.5948 0ZM13.1452 11.6588C12.0046 12.6267 10.7853 13.4978 9.5 14.2631C8.21468 13.4978 6.99538 12.6267 5.85478 11.6588C4.08009 10.1363 1.96552 7.81457 1.96552 5.40517C1.96552 4.49292 2.32791 3.61803 2.97297 2.97297C3.61803 2.32791 4.49292 1.96552 5.40517 1.96552C6.86293 1.96552 8.08319 2.73534 8.59013 3.97526C8.66391 4.15601 8.78986 4.31069 8.95191 4.41957C9.11396 4.52845 9.30477 4.5866 9.5 4.5866C9.69523 4.5866 9.88604 4.52845 10.0481 4.41957C10.2101 4.31069 10.3361 4.15601 10.4099 3.97526C10.9168 2.73534 12.1371 1.96552 13.5948 1.96552C14.5071 1.96552 15.382 2.32791 16.027 2.97297C16.6721 3.61803 17.0345 4.49292 17.0345 5.40517C17.0345 7.81457 14.9199 10.1363 13.1452 11.6588Z" fill="#7ADCDB"/>
</svg>
