<svg xmlns="http://www.w3.org/2000/svg" width="26" height="26" viewBox="0 0 26 26" fill="none">
  <path d="M13 2.16675C15.5859 2.16675 18.0658 3.19398 19.8943 5.02246C21.7228 6.85094 22.75 9.33089 22.75 11.9167C22.75 15.2469 20.9343 17.9726 19.0212 19.928C18.0653 20.8944 17.0223 21.7706 15.9055 22.5453L15.444 22.8595L15.2273 23.0036L14.8189 23.2636L14.4549 23.4857L14.0043 23.7478C13.6984 23.9224 13.3522 24.0143 13 24.0143C12.6478 24.0143 12.3016 23.9224 11.9958 23.7478L11.5451 23.4857L10.9818 23.139L10.7737 23.0036L10.3296 22.7078C9.12473 21.8926 8.00248 20.9616 6.97883 19.928C5.06567 17.9715 3.25 15.2469 3.25 11.9167C3.25 9.33089 4.27723 6.85094 6.10571 5.02246C7.93419 3.19398 10.4141 2.16675 13 2.16675ZM13 8.66675C12.5732 8.66675 12.1506 8.75081 11.7563 8.91414C11.362 9.07747 11.0037 9.31686 10.7019 9.61865C10.4001 9.92044 10.1607 10.2787 9.99739 10.673C9.83406 11.0673 9.75 11.49 9.75 11.9167C9.75 12.3435 9.83406 12.7662 9.99739 13.1605C10.1607 13.5548 10.4001 13.9131 10.7019 14.2148C11.0037 14.5166 11.362 14.756 11.7563 14.9194C12.1506 15.0827 12.5732 15.1667 13 15.1667C13.862 15.1667 14.6886 14.8243 15.2981 14.2148C15.9076 13.6054 16.25 12.7787 16.25 11.9167C16.25 11.0548 15.9076 10.2281 15.2981 9.61865C14.6886 9.00916 13.862 8.66675 13 8.66675Z" fill="#7ADCDB"/>
</svg>