<svg width="30" height="30" viewBox="0 0 30 30" fill="none" xmlns="http://www.w3.org/2000/svg">
<circle cx="15" cy="15" r="15" fill="white"/>
<path d="M15.2098 0.00139365C6.77417 -0.112538 -0.112543 6.77384 0.00139371 15.2091C0.113888 23.299 6.70133 29.8861 14.7916 29.9986C23.2287 30.1139 30.1139 23.2276 29.9986 14.7923C29.8875 6.70101 23.3001 0.113883 15.2098 0.00139365ZM21.8513 9.17649L15.9209 22.6262C15.5754 23.3812 14.4224 23.1309 14.4224 22.2974V15.8653C14.4224 15.7888 14.392 15.7154 14.3379 15.6613C14.2838 15.6072 14.2104 15.5769 14.1339 15.5769H7.70296C6.87223 15.5769 6.62128 14.4325 7.37341 14.0864L20.8245 8.14967C20.9682 8.0833 21.1288 8.06261 21.2847 8.09039C21.4405 8.11817 21.5841 8.19307 21.696 8.305C21.8079 8.41693 21.8829 8.5605 21.9106 8.71634C21.9384 8.87218 21.9177 9.03278 21.8513 9.17649Z" fill="url(#paint0_linear_161_1198)"/>
<defs>
<linearGradient id="paint0_linear_161_1198" x1="6.31262e-07" y1="0.195262" x2="34.9712" y2="8.26723" gradientUnits="userSpaceOnUse">
<stop stop-color="#D1FFD8"/>
<stop offset="1" stop-color="#7ADCDB"/>
</linearGradient>
</defs>
</svg>
