<svg width="19" height="17" viewBox="0 0 19 17" fill="none" xmlns="http://www.w3.org/2000/svg">
<path id="Vector" d="M9.07713 16.2578C9.20061 16.3373 9.3482 16.38 9.49951 16.38C9.65083 16.38 9.79842 16.3373 9.9219 16.2578L9.5 15.716L9.92287 16.2578L9.93067 16.2525L9.95113 16.2392L10.0291 16.1879C10.0966 16.1436 10.1924 16.079 10.3165 15.994C11.7644 15.0009 13.1311 13.9138 14.4059 12.741C15.5245 11.7068 16.6615 10.4983 17.5229 9.2162C18.3803 7.94121 19 6.53873 19 5.1327C19 3.46371 18.43 2.15951 17.4215 1.2741C16.4179 0.394006 15.0636 0 13.641 0C11.9603 0 10.4763 0.737544 9.5 1.87441C8.52369 0.737544 7.03877 0 5.35897 0C2.35795 0 0 2.33659 0 5.1327C0 6.53873 0.620667 7.94033 1.47713 9.2162C2.33846 10.4983 3.47554 11.7068 4.5941 12.7419C5.95315 13.9913 7.41644 15.1434 8.97092 16.1879L9.04887 16.2392L9.06933 16.2525L9.07713 16.2578Z" fill="#7ADCDB"/>
</svg>
