<svg width="14" height="17" viewBox="0 0 14 17" fill="none" xmlns="http://www.w3.org/2000/svg">
<path d="M13.1826 10.3411C13.7215 9.3244 14.0022 8.18963 14 7.0376C14 3.15077 10.8661 0 7 0C3.13395 0 1.0793e-05 3.15077 1.0793e-05 7.0376C-0.00289449 8.69777 0.580822 10.305 1.64707 11.5727L1.6553 11.5831L1.66271 11.5913H1.64707L5.80094 16.025C5.95493 16.1894 6.14071 16.3203 6.34688 16.4098C6.55304 16.4993 6.77523 16.5455 6.99979 16.5455C7.22436 16.5455 7.44655 16.4993 7.65271 16.4098C7.85888 16.3203 8.04466 16.1894 8.19864 16.025L12.3529 11.5913H12.3373L12.3439 11.5835L12.3447 11.5826C12.3743 11.547 12.4039 11.5112 12.4332 11.475C12.7189 11.1222 12.9699 10.7427 13.1826 10.3411ZM7.00206 9.72803C6.34682 9.72803 5.71842 9.46634 5.25509 9.00052C4.79177 8.53471 4.53147 7.90293 4.53147 7.24417C4.53147 6.58541 4.79177 5.95363 5.25509 5.48782C5.71842 5.022 6.34682 4.76031 7.00206 4.76031C7.6573 4.76031 8.2857 5.022 8.74903 5.48782C9.21235 5.95363 9.47264 6.58541 9.47264 7.24417C9.47264 7.90293 9.21235 8.53471 8.74903 9.00052C8.2857 9.46634 7.6573 9.72803 7.00206 9.72803Z" fill="white"/>
</svg>
