<svg xmlns="http://www.w3.org/2000/svg" width="40" height="36" viewBox="0 0 40 36" fill="none">
  <path d="M29.4545 19.6364C29.4545 22.2403 28.4201 24.7376 26.5789 26.5789C24.7376 28.4201 22.2403 29.4545 19.6364 29.4545C17.0324 29.4545 14.5351 28.4201 12.6939 26.5789C10.8526 24.7376 9.81818 22.2403 9.81818 19.6364C9.81818 17.0324 10.8526 14.5351 12.6939 12.6939C14.5351 10.8526 17.0324 9.81818 19.6364 9.81818C22.2403 9.81818 24.7376 10.8526 26.5789 12.6939C28.4201 14.5351 29.4545 17.0324 29.4545 19.6364ZM26.1818 19.6364C26.1818 17.9004 25.4922 16.2355 24.2647 15.008C23.0372 13.7805 21.3723 13.0909 19.6364 13.0909C17.9004 13.0909 16.2355 13.7805 15.008 15.008C13.7805 16.2355 13.0909 17.9004 13.0909 19.6364C13.0909 21.3723 13.7805 23.0372 15.008 24.2647C16.2355 25.4922 17.9004 26.1818 19.6364 26.1818C21.3723 26.1818 23.0372 25.4922 24.2647 24.2647C25.4922 23.0372 26.1818 21.3723 26.1818 19.6364ZM15.1135 0C14.2013 3.08128e-05 13.3072 0.254201 12.5314 0.734001C11.7556 1.2138 11.1289 1.90025 10.7215 2.71636L9.81826 4.52275C9.19844 5.7624 7.93142 6.54545 6.54545 6.54545C4.80949 6.54545 3.14463 7.23506 1.91712 8.46257C0.689608 9.69008 0 11.3549 0 13.0909V29.4545C0 31.1905 0.689608 32.8554 1.91712 34.0829C3.14463 35.3104 4.80949 36 6.54545 36H32.7273C34.4632 36 36.1281 35.3104 37.3556 34.0829C38.5831 32.8554 39.2727 31.1905 39.2727 29.4545V13.0909C39.2727 11.3549 38.5831 9.69008 37.3556 8.46257C36.1281 7.23506 34.4632 6.54545 32.7273 6.54545C31.3413 6.54545 30.0743 5.7624 29.4545 4.52275L28.5513 2.71636C28.1438 1.90025 27.5171 1.2138 26.7413 0.734001C25.9655 0.254201 25.0714 3.08128e-05 24.1593 0H15.1135ZM13.6505 4.176C13.7866 3.90454 13.9955 3.67628 14.2538 3.51675C14.5122 3.35723 14.8098 3.27274 15.1135 3.27273H24.1593C24.4629 3.27274 24.7606 3.35723 25.0189 3.51675C25.2773 3.67628 25.4862 3.90454 25.6222 4.176L27.9916 8.91491C28.1277 9.18637 28.3365 9.41463 28.5949 9.57416C28.8533 9.73368 29.1509 9.81817 29.4545 9.81818H32.7273C33.5953 9.81818 34.4277 10.163 35.0414 10.7767C35.6552 11.3905 36 12.2229 36 13.0909V29.4545C36 30.3225 35.6552 31.155 35.0414 31.7687C34.4277 32.3825 33.5953 32.7273 32.7273 32.7273H6.54545C5.67747 32.7273 4.84504 32.3825 4.23129 31.7687C3.61753 31.155 3.27273 30.3225 3.27273 29.4545V13.0909C3.27273 12.2229 3.61753 11.3905 4.23129 10.7767C4.84504 10.163 5.67747 9.81818 6.54545 9.81818H9.81818C10.1218 9.81817 10.4195 9.73368 10.6778 9.57416C10.9362 9.41463 11.1451 9.18637 11.2811 8.91491L13.6505 4.176Z" fill="#E9F3F3"/>
</svg>