<svg xmlns="http://www.w3.org/2000/svg" width="20" height="20" viewBox="0 0 20 20" fill="none">
  <mask id="path-1-inside-1_689_77" fill="white">
    <path fill-rule="evenodd" clip-rule="evenodd" d="M8.49977 1.91687e-08C7.14436 0.000115492 5.80863 0.324364 4.60402 0.945694C3.39941 1.56702 2.36086 2.46742 1.575 3.57175C0.789144 4.67609 0.278775 5.95235 0.0864735 7.29404C-0.105828 8.63574 0.0255146 10.004 0.469544 11.2846C0.913572 12.5652 1.65741 13.7211 2.639 14.6557C3.62059 15.5904 4.81147 16.2768 6.11228 16.6576C7.41309 17.0384 8.78611 17.1026 10.1168 16.8449C11.4475 16.5872 12.6972 16.015 13.7618 15.176L17.4138 18.828C17.6024 19.0102 17.855 19.111 18.1172 19.1087C18.3794 19.1064 18.6302 19.0012 18.8156 18.8158C19.001 18.6304 19.1062 18.3796 19.1084 18.1174C19.1107 17.8552 19.0099 17.6026 18.8278 17.414L15.1758 13.762C16.1638 12.5086 16.7789 11.0024 16.9509 9.41573C17.1228 7.82905 16.8446 6.22602 16.148 4.79009C15.4514 3.35417 14.3646 2.14336 13.0121 1.29623C11.6595 0.449106 10.0957 -0.000107143 8.49977 1.91687e-08ZM1.99977 8.5C1.99977 6.77609 2.68458 5.12279 3.90357 3.90381C5.12256 2.68482 6.77586 2 8.49977 2C10.2237 2 11.877 2.68482 13.096 3.90381C14.3149 5.12279 14.9998 6.77609 14.9998 8.5C14.9998 10.2239 14.3149 11.8772 13.096 13.0962C11.877 14.3152 10.2237 15 8.49977 15C6.77586 15 5.12256 14.3152 3.90357 13.0962C2.68458 11.8772 1.99977 10.2239 1.99977 8.5Z"/>
  </mask>
  <path fill-rule="evenodd" clip-rule="evenodd" d="M8.49977 1.91687e-08C7.14436 0.000115492 5.80863 0.324364 4.60402 0.945694C3.39941 1.56702 2.36086 2.46742 1.575 3.57175C0.789144 4.67609 0.278775 5.95235 0.0864735 7.29404C-0.105828 8.63574 0.0255146 10.004 0.469544 11.2846C0.913572 12.5652 1.65741 13.7211 2.639 14.6557C3.62059 15.5904 4.81147 16.2768 6.11228 16.6576C7.41309 17.0384 8.78611 17.1026 10.1168 16.8449C11.4475 16.5872 12.6972 16.015 13.7618 15.176L17.4138 18.828C17.6024 19.0102 17.855 19.111 18.1172 19.1087C18.3794 19.1064 18.6302 19.0012 18.8156 18.8158C19.001 18.6304 19.1062 18.3796 19.1084 18.1174C19.1107 17.8552 19.0099 17.6026 18.8278 17.414L15.1758 13.762C16.1638 12.5086 16.7789 11.0024 16.9509 9.41573C17.1228 7.82905 16.8446 6.22602 16.148 4.79009C15.4514 3.35417 14.3646 2.14336 13.0121 1.29623C11.6595 0.449106 10.0957 -0.000107143 8.49977 1.91687e-08ZM1.99977 8.5C1.99977 6.77609 2.68458 5.12279 3.90357 3.90381C5.12256 2.68482 6.77586 2 8.49977 2C10.2237 2 11.877 2.68482 13.096 3.90381C14.3149 5.12279 14.9998 6.77609 14.9998 8.5C14.9998 10.2239 14.3149 11.8772 13.096 13.0962C11.877 14.3152 10.2237 15 8.49977 15C6.77586 15 5.12256 14.3152 3.90357 13.0962C2.68458 11.8772 1.99977 10.2239 1.99977 8.5Z" fill="white"/>
  <path d="M8.49977 1.91687e-08L8.49903 -11H8.49883L8.49977 1.91687e-08ZM13.7618 15.176L21.5399 7.39782L14.6291 0.487035L6.95306 6.53647L13.7618 15.176ZM17.4138 18.828L9.63559 26.6062L9.70318 26.6738L9.77194 26.7402L17.4138 18.828ZM18.8278 17.414L26.7399 9.77217L26.6735 9.70342L26.6059 9.63583L18.8278 17.414ZM15.1758 13.762L6.53698 6.95235L0.486045 14.6286L7.39759 21.5402L15.1758 13.762ZM1.99977 8.5H-9.00023H1.99977ZM8.49977 2V-9V2ZM14.9998 8.5H25.9998H14.9998ZM8.49883 -11C5.38936 -10.9997 2.32505 -10.2559 -0.438466 -8.83047L9.64651 10.7219C9.29221 10.9046 8.89935 11 8.5007 11L8.49883 -11ZM-0.438466 -8.83047C-3.20198 -7.40506 -5.58455 -5.33946 -7.3874 -2.80598L10.5374 9.94948C10.3063 10.2743 10.0008 10.5391 9.64651 10.7219L-0.438466 -8.83047ZM-7.3874 -2.80598C-9.19024 -0.272498 -10.3611 2.65539 -10.8023 5.73339L10.9752 8.85469C10.9186 9.24931 10.7685 9.62468 10.5374 9.94948L-7.3874 -2.80598ZM-10.8023 5.73339C-11.2434 8.8114 -10.9421 11.9503 -9.92345 14.8882L10.8625 7.681C10.9931 8.05766 11.0318 8.46008 10.9752 8.85469L-10.8023 5.73339ZM-9.92345 14.8882C-8.90479 17.826 -7.19833 20.4777 -4.94645 22.622L10.2245 6.68949C10.5132 6.96439 10.7319 7.30435 10.8625 7.681L-9.92345 14.8882ZM-4.94645 22.622C-2.69457 24.7662 0.0374425 26.3408 3.02165 27.2145L9.2029 6.10071C9.5855 6.21271 9.93576 6.41459 10.2245 6.68949L-4.94645 22.622ZM3.02165 27.2145C6.00586 28.0882 9.15573 28.2355 12.2085 27.6442L8.02511 6.04561C8.41648 5.96981 8.82031 5.9887 9.2029 6.10071L3.02165 27.2145ZM12.2085 27.6442C15.2612 27.0529 18.1283 25.7402 20.5705 23.8155L6.95306 6.53647C7.26616 6.28971 7.63374 6.12142 8.02511 6.04561L12.2085 27.6442ZM5.98359 22.9542L9.63559 26.6062L25.1919 11.0498L21.5399 7.39782L5.98359 22.9542ZM9.77194 26.7402C12.0352 28.9261 15.0664 30.1356 18.2127 30.1083L18.0216 8.10909C20.6435 8.0863 23.1696 9.09424 25.0556 10.9158L9.77194 26.7402ZM18.2127 30.1083C21.3591 30.0809 24.3688 28.8189 26.5938 26.594L11.0374 11.0376C12.8915 9.18354 15.3997 8.13187 18.0216 8.10909L18.2127 30.1083ZM26.5938 26.594C28.8187 24.3691 30.0807 21.3593 30.108 18.213L8.10885 18.0218C8.13164 15.3999 9.1833 12.8918 11.0374 11.0376L26.5938 26.594ZM30.108 18.213C30.1354 15.0666 28.9258 12.0354 26.7399 9.77217L10.9156 25.0558C9.09401 23.1698 8.08607 20.6438 8.10885 18.0218L30.108 18.213ZM26.6059 9.63583L22.9539 5.98383L7.39759 21.5402L11.0496 25.1922L26.6059 9.63583ZM23.8146 20.5716C26.0811 17.6962 27.4924 14.2408 27.8868 10.6008L6.01489 8.23067C6.06545 7.76401 6.24638 7.321 6.53698 6.95235L23.8146 20.5716ZM27.8868 10.6008C28.2813 6.96077 27.643 3.28323 26.045 -0.010962L6.25103 9.59115C6.04615 9.16881 5.96432 8.69733 6.01489 8.23067L27.8868 10.6008ZM26.045 -0.010962C24.4469 -3.30515 21.9538 -6.08289 18.8508 -8.02629L7.17336 10.6188C6.77554 10.3696 6.4559 10.0135 6.25103 9.59115L26.045 -0.010962ZM18.8508 -8.02629C15.7478 -9.9697 12.1604 -11.0002 8.49903 -11L8.5005 11C8.0311 11 7.57117 10.8679 7.17336 10.6188L18.8508 -8.02629ZM12.9998 8.5C12.9998 9.69347 12.5257 10.8381 11.6817 11.682L-3.8746 -3.87437C-7.15649 -0.592481 -9.00023 3.85871 -9.00023 8.5H12.9998ZM11.6817 11.682C10.8378 12.5259 9.69324 13 8.49977 13V-9C3.85848 -9 -0.592716 -7.15626 -3.8746 -3.87437L11.6817 11.682ZM8.49977 13C7.30629 13 6.1617 12.5259 5.31779 11.682L20.8741 -3.87437C17.5922 -7.15626 13.1411 -9 8.49977 -9V13ZM5.31779 11.682C4.47387 10.8381 3.99977 9.69347 3.99977 8.5H25.9998C25.9998 3.85871 24.156 -0.592481 20.8741 -3.87437L5.31779 11.682ZM3.99977 8.5C3.99977 7.30653 4.47387 6.16193 5.31779 5.31802L20.8741 20.8744C24.156 17.5925 25.9998 13.1413 25.9998 8.5H3.99977ZM5.31779 5.31802C6.1617 4.47411 7.30629 4 8.49977 4V26C13.1411 26 17.5922 24.1563 20.8741 20.8744L5.31779 5.31802ZM8.49977 4C9.69324 4 10.8378 4.47411 11.6817 5.31802L-3.8746 20.8744C-0.592716 24.1563 3.85848 26 8.49977 26V4ZM11.6817 5.31802C12.5257 6.16193 12.9998 7.30653 12.9998 8.5H-9.00023C-9.00023 13.1413 -7.15649 17.5925 -3.8746 20.8744L11.6817 5.31802Z" fill="white" mask="url(#path-1-inside-1_689_77)"/>
</svg>